<svg width="279" height="171" viewBox="0 0 279 171" fill="none" xmlns="http://www.w3.org/2000/svg">
<mask id="path-1-outside-1_2487_62" maskUnits="userSpaceOnUse" x="27" y="35" width="220" height="27" fill="black">
<rect fill="white" x="27" y="35" width="220" height="27"/>
<path d="M28.0227 36.7273H34.0909L40.5 52.3636H40.7727L47.1818 36.7273H53.25V60H48.4773V44.8523H48.2841L42.2614 59.8864H39.0114L32.9886 44.7955H32.7955V60H28.0227V36.7273ZM56.984 60V36.7273H72.6658V40.7841H61.9044V46.3295H71.859V50.3864H61.9044V55.9432H72.7113V60H56.984ZM88.8827 43.4205C88.7918 42.5038 88.4017 41.7917 87.7123 41.2841C87.0229 40.7765 86.0873 40.5227 84.9055 40.5227C84.1024 40.5227 83.4244 40.6364 82.8714 40.8636C82.3183 41.0833 81.8941 41.3902 81.5986 41.7841C81.3108 42.178 81.1668 42.625 81.1668 43.125C81.1517 43.5417 81.2388 43.9053 81.4282 44.2159C81.6252 44.5265 81.8941 44.7955 82.235 45.0227C82.5759 45.2424 82.9698 45.4356 83.4168 45.6023C83.8638 45.7614 84.3411 45.8977 84.8486 46.0114L86.9395 46.5114C87.9547 46.7386 88.8865 47.0417 89.735 47.4205C90.5835 47.7992 91.3183 48.2652 91.9395 48.8182C92.5608 49.3712 93.0418 50.0227 93.3827 50.7727C93.7312 51.5227 93.9092 52.3826 93.9168 53.3523C93.9092 54.7765 93.5456 56.0114 92.8259 57.0568C92.1138 58.0947 91.0835 58.9015 89.735 59.4773C88.3941 60.0455 86.7767 60.3295 84.8827 60.3295C83.0039 60.3295 81.3676 60.0417 79.9736 59.4659C78.5873 58.8902 77.5039 58.0379 76.7236 56.9091C75.9509 55.7727 75.5456 54.3674 75.5077 52.6932H80.2691C80.3221 53.4735 80.5456 54.125 80.9395 54.6477C81.3411 55.1629 81.8752 55.553 82.5418 55.8182C83.2161 56.0758 83.9774 56.2045 84.8259 56.2045C85.6592 56.2045 86.3827 56.0833 86.9964 55.8409C87.6176 55.5985 88.0986 55.2614 88.4395 54.8295C88.7805 54.3977 88.9509 53.9015 88.9509 53.3409C88.9509 52.8182 88.7956 52.3788 88.485 52.0227C88.182 51.6667 87.735 51.3636 87.1441 51.1136C86.5608 50.8636 85.8448 50.6364 84.9964 50.4318L82.4623 49.7955C80.5002 49.3182 78.9509 48.572 77.8145 47.5568C76.6782 46.5417 76.1138 45.1742 76.1214 43.4545C76.1138 42.0455 76.4888 40.8144 77.2464 39.7614C78.0115 38.7083 79.0608 37.8864 80.3941 37.2955C81.7274 36.7045 83.2426 36.4091 84.9395 36.4091C86.6668 36.4091 88.1744 36.7045 89.4623 37.2955C90.7577 37.8864 91.7653 38.7083 92.485 39.7614C93.2047 40.8144 93.5759 42.0341 93.5986 43.4205H88.8827ZM103.993 60V36.7273H113.175C114.94 36.7273 116.443 37.0644 117.686 37.7386C118.928 38.4053 119.875 39.3333 120.527 40.5227C121.186 41.7045 121.515 43.0682 121.515 44.6136C121.515 46.1591 121.182 47.5227 120.515 48.7045C119.849 49.8864 118.883 50.8068 117.618 51.4659C116.36 52.125 114.837 52.4545 113.05 52.4545H107.197V48.5114H112.254C113.201 48.5114 113.981 48.3485 114.595 48.0227C115.216 47.6894 115.678 47.2311 115.981 46.6477C116.292 46.0568 116.447 45.3788 116.447 44.6136C116.447 43.8409 116.292 43.1667 115.981 42.5909C115.678 42.0076 115.216 41.5568 114.595 41.2386C113.974 40.9129 113.186 40.75 112.231 40.75H108.913V60H103.993ZM124.391 60V36.7273H133.573C135.331 36.7273 136.831 37.0417 138.073 37.6705C139.323 38.2917 140.274 39.1742 140.926 40.3182C141.585 41.4545 141.914 42.7917 141.914 44.3295C141.914 45.875 141.581 47.2045 140.914 48.3182C140.248 49.4242 139.282 50.2727 138.016 50.8636C136.759 51.4545 135.236 51.75 133.448 51.75H127.301V47.7955H132.653C133.592 47.7955 134.373 47.6667 134.994 47.4091C135.615 47.1515 136.077 46.7652 136.38 46.25C136.691 45.7348 136.846 45.0947 136.846 44.3295C136.846 43.5568 136.691 42.9053 136.38 42.375C136.077 41.8447 135.611 41.4432 134.982 41.1705C134.361 40.8902 133.577 40.75 132.63 40.75H129.312V60H124.391ZM136.96 49.4091L142.744 60H137.312L131.653 49.4091H136.96ZM166.458 48.3636C166.458 50.9015 165.977 53.0606 165.015 54.8409C164.06 56.6212 162.757 57.9811 161.106 58.9205C159.462 59.8523 157.613 60.3182 155.56 60.3182C153.492 60.3182 151.636 59.8485 149.992 58.9091C148.348 57.9697 147.049 56.6098 146.094 54.8295C145.14 53.0492 144.662 50.8939 144.662 48.3636C144.662 45.8258 145.14 43.6667 146.094 41.8864C147.049 40.1061 148.348 38.75 149.992 37.8182C151.636 36.8788 153.492 36.4091 155.56 36.4091C157.613 36.4091 159.462 36.8788 161.106 37.8182C162.757 38.75 164.06 40.1061 165.015 41.8864C165.977 43.6667 166.458 45.8258 166.458 48.3636ZM161.469 48.3636C161.469 46.7197 161.223 45.3333 160.731 44.2045C160.246 43.0758 159.56 42.2197 158.674 41.6364C157.787 41.053 156.75 40.7614 155.56 40.7614C154.371 40.7614 153.333 41.053 152.446 41.6364C151.56 42.2197 150.871 43.0758 150.378 44.2045C149.893 45.3333 149.651 46.7197 149.651 48.3636C149.651 50.0076 149.893 51.3939 150.378 52.5227C150.871 53.6515 151.56 54.5076 152.446 55.0909C153.333 55.6742 154.371 55.9659 155.56 55.9659C156.75 55.9659 157.787 55.6742 158.674 55.0909C159.56 54.5076 160.246 53.6515 160.731 52.5227C161.223 51.3939 161.469 50.0076 161.469 48.3636ZM179.101 36.7273H183.965V52.9545C183.965 54.4545 183.627 55.7576 182.953 56.8636C182.287 57.9697 181.358 58.822 180.169 59.4205C178.98 60.0189 177.597 60.3182 176.021 60.3182C174.62 60.3182 173.347 60.072 172.203 59.5795C171.067 59.0795 170.165 58.322 169.499 57.3068C168.832 56.2841 168.502 55 168.51 53.4545H173.408C173.423 54.0682 173.548 54.5947 173.783 55.0341C174.025 55.4659 174.355 55.7992 174.771 56.0341C175.196 56.2614 175.696 56.375 176.271 56.375C176.877 56.375 177.389 56.2462 177.805 55.9886C178.23 55.7235 178.552 55.3371 178.771 54.8295C178.991 54.322 179.101 53.697 179.101 52.9545V36.7273ZM187.713 60V36.7273H203.395V40.7841H192.633V46.3295H202.588V50.3864H192.633V55.9432H203.44V60H187.713ZM206.1 40.7841V36.7273H225.214V40.7841H218.089V60H213.225V40.7841H206.1ZM240.666 43.4205C240.576 42.5038 240.185 41.7917 239.496 41.2841C238.807 40.7765 237.871 40.5227 236.689 40.5227C235.886 40.5227 235.208 40.6364 234.655 40.8636C234.102 41.0833 233.678 41.3902 233.382 41.7841C233.095 42.178 232.951 42.625 232.951 43.125C232.935 43.5417 233.023 43.9053 233.212 44.2159C233.409 44.5265 233.678 44.7955 234.019 45.0227C234.36 45.2424 234.754 45.4356 235.201 45.6023C235.648 45.7614 236.125 45.8977 236.632 46.0114L238.723 46.5114C239.738 46.7386 240.67 47.0417 241.519 47.4205C242.367 47.7992 243.102 48.2652 243.723 48.8182C244.345 49.3712 244.826 50.0227 245.166 50.7727C245.515 51.5227 245.693 52.3826 245.701 53.3523C245.693 54.7765 245.329 56.0114 244.61 57.0568C243.898 58.0947 242.867 58.9015 241.519 59.4773C240.178 60.0455 238.56 60.3295 236.666 60.3295C234.788 60.3295 233.151 60.0417 231.757 59.4659C230.371 58.8902 229.288 58.0379 228.507 56.9091C227.735 55.7727 227.329 54.3674 227.291 52.6932H232.053C232.106 53.4735 232.329 54.125 232.723 54.6477C233.125 55.1629 233.659 55.553 234.326 55.8182C235 56.0758 235.761 56.2045 236.61 56.2045C237.443 56.2045 238.166 56.0833 238.78 55.8409C239.401 55.5985 239.882 55.2614 240.223 54.8295C240.564 54.3977 240.735 53.9015 240.735 53.3409C240.735 52.8182 240.579 52.3788 240.269 52.0227C239.966 51.6667 239.519 51.3636 238.928 51.1136C238.345 50.8636 237.629 50.6364 236.78 50.4318L234.246 49.7955C232.284 49.3182 230.735 48.572 229.598 47.5568C228.462 46.5417 227.898 45.1742 227.905 43.4545C227.898 42.0455 228.273 40.8144 229.03 39.7614C229.795 38.7083 230.845 37.8864 232.178 37.2955C233.511 36.7045 235.026 36.4091 236.723 36.4091C238.451 36.4091 239.958 36.7045 241.246 37.2955C242.541 37.8864 243.549 38.7083 244.269 39.7614C244.988 40.8144 245.36 42.0341 245.382 43.4205H240.666Z"/>
</mask>
<path d="M28.0227 36.7273H34.0909L40.5 52.3636H40.7727L47.1818 36.7273H53.25V60H48.4773V44.8523H48.2841L42.2614 59.8864H39.0114L32.9886 44.7955H32.7955V60H28.0227V36.7273ZM56.984 60V36.7273H72.6658V40.7841H61.9044V46.3295H71.859V50.3864H61.9044V55.9432H72.7113V60H56.984ZM88.8827 43.4205C88.7918 42.5038 88.4017 41.7917 87.7123 41.2841C87.0229 40.7765 86.0873 40.5227 84.9055 40.5227C84.1024 40.5227 83.4244 40.6364 82.8714 40.8636C82.3183 41.0833 81.8941 41.3902 81.5986 41.7841C81.3108 42.178 81.1668 42.625 81.1668 43.125C81.1517 43.5417 81.2388 43.9053 81.4282 44.2159C81.6252 44.5265 81.8941 44.7955 82.235 45.0227C82.5759 45.2424 82.9698 45.4356 83.4168 45.6023C83.8638 45.7614 84.3411 45.8977 84.8486 46.0114L86.9395 46.5114C87.9547 46.7386 88.8865 47.0417 89.735 47.4205C90.5835 47.7992 91.3183 48.2652 91.9395 48.8182C92.5608 49.3712 93.0418 50.0227 93.3827 50.7727C93.7312 51.5227 93.9092 52.3826 93.9168 53.3523C93.9092 54.7765 93.5456 56.0114 92.8259 57.0568C92.1138 58.0947 91.0835 58.9015 89.735 59.4773C88.3941 60.0455 86.7767 60.3295 84.8827 60.3295C83.0039 60.3295 81.3676 60.0417 79.9736 59.4659C78.5873 58.8902 77.5039 58.0379 76.7236 56.9091C75.9509 55.7727 75.5456 54.3674 75.5077 52.6932H80.2691C80.3221 53.4735 80.5456 54.125 80.9395 54.6477C81.3411 55.1629 81.8752 55.553 82.5418 55.8182C83.2161 56.0758 83.9774 56.2045 84.8259 56.2045C85.6592 56.2045 86.3827 56.0833 86.9964 55.8409C87.6176 55.5985 88.0986 55.2614 88.4395 54.8295C88.7805 54.3977 88.9509 53.9015 88.9509 53.3409C88.9509 52.8182 88.7956 52.3788 88.485 52.0227C88.182 51.6667 87.735 51.3636 87.1441 51.1136C86.5608 50.8636 85.8448 50.6364 84.9964 50.4318L82.4623 49.7955C80.5002 49.3182 78.9509 48.572 77.8145 47.5568C76.6782 46.5417 76.1138 45.1742 76.1214 43.4545C76.1138 42.0455 76.4888 40.8144 77.2464 39.7614C78.0115 38.7083 79.0608 37.8864 80.3941 37.2955C81.7274 36.7045 83.2426 36.4091 84.9395 36.4091C86.6668 36.4091 88.1744 36.7045 89.4623 37.2955C90.7577 37.8864 91.7653 38.7083 92.485 39.7614C93.2047 40.8144 93.5759 42.0341 93.5986 43.4205H88.8827ZM103.993 60V36.7273H113.175C114.94 36.7273 116.443 37.0644 117.686 37.7386C118.928 38.4053 119.875 39.3333 120.527 40.5227C121.186 41.7045 121.515 43.0682 121.515 44.6136C121.515 46.1591 121.182 47.5227 120.515 48.7045C119.849 49.8864 118.883 50.8068 117.618 51.4659C116.36 52.125 114.837 52.4545 113.05 52.4545H107.197V48.5114H112.254C113.201 48.5114 113.981 48.3485 114.595 48.0227C115.216 47.6894 115.678 47.2311 115.981 46.6477C116.292 46.0568 116.447 45.3788 116.447 44.6136C116.447 43.8409 116.292 43.1667 115.981 42.5909C115.678 42.0076 115.216 41.5568 114.595 41.2386C113.974 40.9129 113.186 40.75 112.231 40.75H108.913V60H103.993ZM124.391 60V36.7273H133.573C135.331 36.7273 136.831 37.0417 138.073 37.6705C139.323 38.2917 140.274 39.1742 140.926 40.3182C141.585 41.4545 141.914 42.7917 141.914 44.3295C141.914 45.875 141.581 47.2045 140.914 48.3182C140.248 49.4242 139.282 50.2727 138.016 50.8636C136.759 51.4545 135.236 51.75 133.448 51.75H127.301V47.7955H132.653C133.592 47.7955 134.373 47.6667 134.994 47.4091C135.615 47.1515 136.077 46.7652 136.38 46.25C136.691 45.7348 136.846 45.0947 136.846 44.3295C136.846 43.5568 136.691 42.9053 136.38 42.375C136.077 41.8447 135.611 41.4432 134.982 41.1705C134.361 40.8902 133.577 40.75 132.63 40.75H129.312V60H124.391ZM136.96 49.4091L142.744 60H137.312L131.653 49.4091H136.96ZM166.458 48.3636C166.458 50.9015 165.977 53.0606 165.015 54.8409C164.06 56.6212 162.757 57.9811 161.106 58.9205C159.462 59.8523 157.613 60.3182 155.56 60.3182C153.492 60.3182 151.636 59.8485 149.992 58.9091C148.348 57.9697 147.049 56.6098 146.094 54.8295C145.14 53.0492 144.662 50.8939 144.662 48.3636C144.662 45.8258 145.14 43.6667 146.094 41.8864C147.049 40.1061 148.348 38.75 149.992 37.8182C151.636 36.8788 153.492 36.4091 155.56 36.4091C157.613 36.4091 159.462 36.8788 161.106 37.8182C162.757 38.75 164.06 40.1061 165.015 41.8864C165.977 43.6667 166.458 45.8258 166.458 48.3636ZM161.469 48.3636C161.469 46.7197 161.223 45.3333 160.731 44.2045C160.246 43.0758 159.56 42.2197 158.674 41.6364C157.787 41.053 156.75 40.7614 155.56 40.7614C154.371 40.7614 153.333 41.053 152.446 41.6364C151.56 42.2197 150.871 43.0758 150.378 44.2045C149.893 45.3333 149.651 46.7197 149.651 48.3636C149.651 50.0076 149.893 51.3939 150.378 52.5227C150.871 53.6515 151.56 54.5076 152.446 55.0909C153.333 55.6742 154.371 55.9659 155.56 55.9659C156.75 55.9659 157.787 55.6742 158.674 55.0909C159.56 54.5076 160.246 53.6515 160.731 52.5227C161.223 51.3939 161.469 50.0076 161.469 48.3636ZM179.101 36.7273H183.965V52.9545C183.965 54.4545 183.627 55.7576 182.953 56.8636C182.287 57.9697 181.358 58.822 180.169 59.4205C178.98 60.0189 177.597 60.3182 176.021 60.3182C174.62 60.3182 173.347 60.072 172.203 59.5795C171.067 59.0795 170.165 58.322 169.499 57.3068C168.832 56.2841 168.502 55 168.51 53.4545H173.408C173.423 54.0682 173.548 54.5947 173.783 55.0341C174.025 55.4659 174.355 55.7992 174.771 56.0341C175.196 56.2614 175.696 56.375 176.271 56.375C176.877 56.375 177.389 56.2462 177.805 55.9886C178.23 55.7235 178.552 55.3371 178.771 54.8295C178.991 54.322 179.101 53.697 179.101 52.9545V36.7273ZM187.713 60V36.7273H203.395V40.7841H192.633V46.3295H202.588V50.3864H192.633V55.9432H203.44V60H187.713ZM206.1 40.7841V36.7273H225.214V40.7841H218.089V60H213.225V40.7841H206.1ZM240.666 43.4205C240.576 42.5038 240.185 41.7917 239.496 41.2841C238.807 40.7765 237.871 40.5227 236.689 40.5227C235.886 40.5227 235.208 40.6364 234.655 40.8636C234.102 41.0833 233.678 41.3902 233.382 41.7841C233.095 42.178 232.951 42.625 232.951 43.125C232.935 43.5417 233.023 43.9053 233.212 44.2159C233.409 44.5265 233.678 44.7955 234.019 45.0227C234.36 45.2424 234.754 45.4356 235.201 45.6023C235.648 45.7614 236.125 45.8977 236.632 46.0114L238.723 46.5114C239.738 46.7386 240.67 47.0417 241.519 47.4205C242.367 47.7992 243.102 48.2652 243.723 48.8182C244.345 49.3712 244.826 50.0227 245.166 50.7727C245.515 51.5227 245.693 52.3826 245.701 53.3523C245.693 54.7765 245.329 56.0114 244.61 57.0568C243.898 58.0947 242.867 58.9015 241.519 59.4773C240.178 60.0455 238.56 60.3295 236.666 60.3295C234.788 60.3295 233.151 60.0417 231.757 59.4659C230.371 58.8902 229.288 58.0379 228.507 56.9091C227.735 55.7727 227.329 54.3674 227.291 52.6932H232.053C232.106 53.4735 232.329 54.125 232.723 54.6477C233.125 55.1629 233.659 55.553 234.326 55.8182C235 56.0758 235.761 56.2045 236.61 56.2045C237.443 56.2045 238.166 56.0833 238.78 55.8409C239.401 55.5985 239.882 55.2614 240.223 54.8295C240.564 54.3977 240.735 53.9015 240.735 53.3409C240.735 52.8182 240.579 52.3788 240.269 52.0227C239.966 51.6667 239.519 51.3636 238.928 51.1136C238.345 50.8636 237.629 50.6364 236.78 50.4318L234.246 49.7955C232.284 49.3182 230.735 48.572 229.598 47.5568C228.462 46.5417 227.898 45.1742 227.905 43.4545C227.898 42.0455 228.273 40.8144 229.03 39.7614C229.795 38.7083 230.845 37.8864 232.178 37.2955C233.511 36.7045 235.026 36.4091 236.723 36.4091C238.451 36.4091 239.958 36.7045 241.246 37.2955C242.541 37.8864 243.549 38.7083 244.269 39.7614C244.988 40.8144 245.36 42.0341 245.382 43.4205H240.666Z" fill="#F68B39"/>
<path d="M28.0227 36.7273V35.7273H27.0227V36.7273H28.0227ZM34.0909 36.7273L35.0162 36.348L34.7618 35.7273H34.0909V36.7273ZM40.5 52.3636L39.5747 52.7429L39.8291 53.3636H40.5V52.3636ZM40.7727 52.3636V53.3636H41.4436L41.698 52.7429L40.7727 52.3636ZM47.1818 36.7273V35.7273H46.511L46.2565 36.348L47.1818 36.7273ZM53.25 36.7273H54.25V35.7273H53.25V36.7273ZM53.25 60V61H54.25V60H53.25ZM48.4773 60H47.4773V61H48.4773V60ZM48.4773 44.8523H49.4773V43.8523H48.4773V44.8523ZM48.2841 44.8523V43.8523H47.6074L47.3558 44.4804L48.2841 44.8523ZM42.2614 59.8864V60.8864H42.938L43.1896 60.2582L42.2614 59.8864ZM39.0114 59.8864L38.0826 60.257L38.3338 60.8864H39.0114V59.8864ZM32.9886 44.7955L33.9174 44.4248L33.6662 43.7955H32.9886V44.7955ZM32.7955 44.7955V43.7955H31.7955V44.7955H32.7955ZM32.7955 60V61H33.7955V60H32.7955ZM28.0227 60H27.0227V61H28.0227V60ZM28.0227 37.7273H34.0909V35.7273H28.0227V37.7273ZM33.1656 37.1065L39.5747 52.7429L41.4253 51.9844L35.0162 36.348L33.1656 37.1065ZM40.5 53.3636H40.7727V51.3636H40.5V53.3636ZM41.698 52.7429L48.1071 37.1065L46.2565 36.348L39.8474 51.9844L41.698 52.7429ZM47.1818 37.7273H53.25V35.7273H47.1818V37.7273ZM52.25 36.7273V60H54.25V36.7273H52.25ZM53.25 59H48.4773V61H53.25V59ZM49.4773 60V44.8523H47.4773V60H49.4773ZM48.4773 43.8523H48.2841V45.8523H48.4773V43.8523ZM47.3558 44.4804L41.3331 59.5145L43.1896 60.2582L49.2124 45.2241L47.3558 44.4804ZM42.2614 58.8864H39.0114V60.8864H42.2614V58.8864ZM39.9401 59.5157L33.9174 44.4248L32.0599 45.1661L38.0826 60.257L39.9401 59.5157ZM32.9886 43.7955H32.7955V45.7955H32.9886V43.7955ZM31.7955 44.7955V60H33.7955V44.7955H31.7955ZM32.7955 59H28.0227V61H32.7955V59ZM29.0227 60V36.7273H27.0227V60H29.0227ZM56.984 60H55.984V61H56.984V60ZM56.984 36.7273V35.7273H55.984V36.7273H56.984ZM72.6658 36.7273H73.6658V35.7273H72.6658V36.7273ZM72.6658 40.7841V41.7841H73.6658V40.7841H72.6658ZM61.9044 40.7841V39.7841H60.9044V40.7841H61.9044ZM61.9044 46.3295H60.9044V47.3295H61.9044V46.3295ZM71.859 46.3295H72.859V45.3295H71.859V46.3295ZM71.859 50.3864V51.3864H72.859V50.3864H71.859ZM61.9044 50.3864V49.3864H60.9044V50.3864H61.9044ZM61.9044 55.9432H60.9044V56.9432H61.9044V55.9432ZM72.7113 55.9432H73.7113V54.9432H72.7113V55.9432ZM72.7113 60V61H73.7113V60H72.7113ZM57.984 60V36.7273H55.984V60H57.984ZM56.984 37.7273H72.6658V35.7273H56.984V37.7273ZM71.6658 36.7273V40.7841H73.6658V36.7273H71.6658ZM72.6658 39.7841H61.9044V41.7841H72.6658V39.7841ZM60.9044 40.7841V46.3295H62.9044V40.7841H60.9044ZM61.9044 47.3295H71.859V45.3295H61.9044V47.3295ZM70.859 46.3295V50.3864H72.859V46.3295H70.859ZM71.859 49.3864H61.9044V51.3864H71.859V49.3864ZM60.9044 50.3864V55.9432H62.9044V50.3864H60.9044ZM61.9044 56.9432H72.7113V54.9432H61.9044V56.9432ZM71.7113 55.9432V60H73.7113V55.9432H71.7113ZM72.7113 59H56.984V61H72.7113V59ZM88.8827 43.4205L87.8876 43.5191L87.977 44.4205H88.8827V43.4205ZM82.8714 40.8636L83.2406 41.7931L83.2515 41.7886L82.8714 40.8636ZM81.5986 41.7841L80.7986 41.184L80.7912 41.1941L81.5986 41.7841ZM81.1668 43.125L82.1662 43.1613L82.1668 43.1432V43.125H81.1668ZM81.4282 44.2159L80.5744 44.7365L80.579 44.744L80.5837 44.7515L81.4282 44.2159ZM82.235 45.0227L81.6803 45.8548L81.6868 45.8591L81.6933 45.8633L82.235 45.0227ZM83.4168 45.6023L83.0674 46.5393L83.0744 46.5419L83.0815 46.5444L83.4168 45.6023ZM84.8486 46.0114L85.0812 45.0388L85.0742 45.0371L85.0671 45.0355L84.8486 46.0114ZM86.9395 46.5114L86.707 47.4839L86.714 47.4856L86.7211 47.4872L86.9395 46.5114ZM89.735 47.4205L89.3273 48.3336L89.3273 48.3336L89.735 47.4205ZM91.9395 48.8182L92.6045 48.0713L92.6045 48.0713L91.9395 48.8182ZM93.3827 50.7727L92.4723 51.1865L92.4758 51.1941L93.3827 50.7727ZM93.9168 53.3523L94.9169 53.3576L94.9168 53.3445L93.9168 53.3523ZM92.8259 57.0568L92.0022 56.4898L92.0013 56.4911L92.8259 57.0568ZM89.735 59.4773L90.1252 60.398L90.1277 60.397L89.735 59.4773ZM79.9736 59.4659L79.5901 60.3894L79.5919 60.3902L79.9736 59.4659ZM76.7236 56.9091L75.8967 57.4714L75.901 57.4777L76.7236 56.9091ZM75.5077 52.6932V51.6932H74.4848L74.508 52.7158L75.5077 52.6932ZM80.2691 52.6932L81.2668 52.6254L81.2034 51.6932H80.2691V52.6932ZM80.9395 54.6477L80.1409 55.2496L80.1458 55.2561L80.1508 55.2625L80.9395 54.6477ZM82.5418 55.8182L82.1722 56.7475L82.185 56.7523L82.5418 55.8182ZM86.9964 55.8409L86.6328 54.9093L86.6289 54.9109L86.9964 55.8409ZM88.4395 54.8295L89.2244 55.4492L89.2244 55.4492L88.4395 54.8295ZM88.485 52.0227L87.7234 52.6709L87.7314 52.6801L88.485 52.0227ZM87.1441 51.1136L86.7502 52.0328L86.7545 52.0346L87.1441 51.1136ZM84.9964 50.4318L84.7528 51.4017L84.762 51.404L84.9964 50.4318ZM82.4623 49.7955L82.7058 48.8255L82.6986 48.8238L82.4623 49.7955ZM77.8145 47.5568L77.1483 48.3026L77.1483 48.3026L77.8145 47.5568ZM76.1214 43.4545L77.1214 43.4589L77.1213 43.4492L76.1214 43.4545ZM77.2464 39.7614L76.4374 39.1735L76.4346 39.1774L77.2464 39.7614ZM89.4623 37.2955L89.0452 38.2044L89.0473 38.2053L89.4623 37.2955ZM92.485 39.7614L91.6594 40.3256L91.6594 40.3256L92.485 39.7614ZM93.5986 43.4205V44.4205H94.6152L94.5985 43.4041L93.5986 43.4205ZM89.8778 43.3218C89.7614 42.1473 89.2414 41.1682 88.3052 40.4788L87.1194 42.0894C87.5619 42.4152 87.8223 42.8603 87.8876 43.5191L89.8778 43.3218ZM88.3052 40.4788C87.3895 39.8046 86.2212 39.5227 84.9055 39.5227V41.5227C85.9534 41.5227 86.6563 41.7484 87.1194 42.0894L88.3052 40.4788ZM84.9055 39.5227C84.0142 39.5227 83.1986 39.648 82.4913 39.9387L83.2515 41.7886C83.6502 41.6247 84.1907 41.5227 84.9055 41.5227V39.5227ZM82.5022 39.9343C81.8138 40.2078 81.2257 40.6147 80.7986 41.1841L82.3986 42.3841C82.5625 42.1656 82.8229 41.9589 83.2406 41.793L82.5022 39.9343ZM80.7912 41.1941C80.3749 41.7638 80.1668 42.4185 80.1668 43.125H82.1668C82.1668 42.8315 82.2466 42.5923 82.406 42.3741L80.7912 41.1941ZM80.1675 43.0887C80.1463 43.6718 80.2686 44.2351 80.5744 44.7365L82.282 43.6953C82.209 43.5756 82.1571 43.4115 82.1662 43.1613L80.1675 43.0887ZM80.5837 44.7515C80.8636 45.1929 81.2364 45.5589 81.6803 45.8548L82.7897 44.1907C82.5517 44.032 82.3867 43.8602 82.2727 43.6804L80.5837 44.7515ZM81.6933 45.8633C82.1041 46.1281 82.5645 46.3517 83.0674 46.5393L83.7662 44.6653C83.3752 44.5195 83.0477 44.3568 82.7767 44.1822L81.6933 45.8633ZM83.0815 46.5444C83.5701 46.7183 84.0867 46.8655 84.6302 46.9872L85.0671 45.0355C84.5954 44.9299 84.1574 44.8044 83.7521 44.6602L83.0815 46.5444ZM84.6161 46.9839L86.707 47.4839L87.1721 45.5388L85.0812 45.0388L84.6161 46.9839ZM86.7211 47.4872C87.6788 47.7016 88.5464 47.985 89.3273 48.3336L90.1427 46.5073C89.2266 46.0984 88.2306 45.7756 87.158 45.5355L86.7211 47.4872ZM89.3273 48.3336C90.0929 48.6754 90.7385 49.0878 91.2746 49.5651L92.6045 48.0713C91.8981 47.4425 91.0741 46.9231 90.1427 46.5073L89.3273 48.3336ZM91.2746 49.5651C91.7927 50.0263 92.1897 50.5647 92.4724 51.1865L94.2931 50.3589C93.8939 49.4807 93.3288 48.7161 92.6045 48.0713L91.2746 49.5651ZM92.4758 51.1941C92.7546 51.794 92.9102 52.5089 92.9168 53.3601L94.9168 53.3445C94.9083 52.2563 94.7078 51.2514 94.2896 50.3513L92.4758 51.1941ZM92.9168 53.347C92.9102 54.596 92.5945 55.6294 92.0022 56.4898L93.6496 57.6239C94.4967 56.3933 94.9083 54.9571 94.9168 53.3576L92.9168 53.347ZM92.0013 56.4911C91.4134 57.348 90.5455 58.0439 89.3423 58.5576L90.1277 60.397C91.6215 59.7592 92.8142 58.8414 93.6505 57.6226L92.0013 56.4911ZM89.3449 58.5565C88.1584 59.0592 86.6811 59.3295 84.8827 59.3295V61.3295C86.8723 61.3295 88.6298 61.0317 90.1251 60.398L89.3449 58.5565ZM84.8827 59.3295C83.1038 59.3295 81.6025 59.0568 80.3554 58.5416L79.5919 60.3902C81.1327 61.0266 82.9041 61.3295 84.8827 61.3295V59.3295ZM80.3572 58.5424C79.1309 58.0331 78.2071 57.2965 77.5462 56.3405L75.901 57.4777C76.8008 58.7793 78.0437 59.7472 79.5901 60.3894L80.3572 58.5424ZM77.5506 56.3468C76.9079 55.4017 76.5419 54.1945 76.5075 52.6706L74.508 52.7158C74.5493 54.5404 74.9939 56.1438 75.8967 57.4714L77.5506 56.3468ZM75.5077 53.6932H80.2691V51.6932H75.5077V53.6932ZM79.2714 52.761C79.335 53.6966 79.6091 54.5439 80.1409 55.2496L81.7382 54.0459C81.4821 53.7061 81.3093 53.2504 81.2668 52.6254L79.2714 52.761ZM80.1508 55.2625C80.6722 55.9314 81.3571 56.4232 82.1722 56.7474L82.9114 54.889C82.3932 54.6829 82.0099 54.3944 81.7283 54.033L80.1508 55.2625ZM82.185 56.7523C82.9912 57.0604 83.8764 57.2045 84.8259 57.2045V55.2045C84.0784 55.2045 83.4409 55.0912 82.8987 54.884L82.185 56.7523ZM84.8259 57.2045C85.7533 57.2045 86.6069 57.07 87.3638 56.771L86.6289 54.9109C86.1586 55.0967 85.5652 55.2045 84.8259 55.2045V57.2045ZM87.3599 56.7725C88.1117 56.4791 88.7521 56.0475 89.2244 55.4492L87.6547 54.2099C87.4452 54.4752 87.1235 54.7179 86.6328 54.9093L87.3599 56.7725ZM89.2244 55.4492C89.7075 54.8373 89.9509 54.1217 89.9509 53.3409H87.9509C87.9509 53.6813 87.8534 53.9582 87.6547 54.2099L89.2244 55.4492ZM89.9509 53.3409C89.9509 52.6041 89.7253 51.9233 89.2386 51.3654L87.7314 52.6801C87.8659 52.8342 87.9509 53.0323 87.9509 53.3409H89.9509ZM89.2465 51.3746C88.8121 50.8641 88.2176 50.482 87.5337 50.1927L86.7545 52.0346C87.2524 52.2453 87.5519 52.4692 87.7235 52.6708L89.2465 51.3746ZM87.538 50.1945C86.888 49.9159 86.1151 49.6729 85.2307 49.4597L84.762 51.404C85.5746 51.5999 86.2335 51.8114 86.7502 52.0328L87.538 50.1945ZM85.2399 49.4619L82.7058 48.8256L82.2187 50.7653L84.7528 51.4017L85.2399 49.4619ZM82.6986 48.8238C80.8462 48.3732 79.4612 47.6869 78.4808 46.8111L77.1483 48.3026C78.4406 49.457 80.1541 50.2632 82.2259 50.7671L82.6986 48.8238ZM78.4808 46.8111C77.5867 46.0123 77.1149 44.9333 77.1214 43.4589L75.1214 43.4501C75.1127 45.4152 75.7697 47.071 77.1483 48.3026L78.4808 46.8111ZM77.1213 43.4492C77.1148 42.2322 77.4348 41.2118 78.0581 40.3454L76.4346 39.1774C75.5428 40.417 75.1128 41.8587 75.1214 43.4599L77.1213 43.4492ZM78.0554 40.3492C78.705 39.4552 79.6071 38.738 80.7993 38.2097L79.9889 36.3812C78.5144 37.0347 77.3181 37.9615 76.4374 39.1735L78.0554 40.3492ZM80.7993 38.2097C81.9858 37.6838 83.3595 37.4091 84.9395 37.4091V35.4091C83.1256 35.4091 81.469 35.7253 79.9889 36.3812L80.7993 38.2097ZM84.9395 37.4091C86.5537 37.4091 87.9136 37.6851 89.0453 38.2043L89.8793 36.3866C88.4352 35.724 86.7799 35.4091 84.9395 35.4091V37.4091ZM89.0473 38.2053C90.1967 38.7296 91.0542 39.4401 91.6594 40.3256L93.3106 39.1971C92.4765 37.9766 91.3187 37.0431 89.8773 36.3856L89.0473 38.2053ZM91.6594 40.3256C92.259 41.2029 92.579 42.2284 92.5988 43.4368L94.5985 43.4041C94.5729 41.8397 94.1504 40.4259 93.3106 39.1971L91.6594 40.3256ZM93.5986 42.4205H88.8827V44.4205H93.5986V42.4205ZM103.993 60H102.993V61H103.993V60ZM103.993 36.7273V35.7273H102.993V36.7273H103.993ZM117.686 37.7386L117.209 38.6176L117.213 38.6198L117.686 37.7386ZM120.527 40.5227L119.65 41.0032L119.653 41.0098L120.527 40.5227ZM117.618 51.4659L117.156 50.579L117.154 50.5802L117.618 51.4659ZM107.197 52.4545H106.197V53.4545H107.197V52.4545ZM107.197 48.5114V47.5114H106.197V48.5114H107.197ZM114.595 48.0227L115.064 48.906L115.068 48.9039L114.595 48.0227ZM115.981 46.6477L115.096 46.1824L115.094 46.1867L115.981 46.6477ZM115.981 42.5909L115.094 43.0519L115.098 43.0588L115.101 43.0657L115.981 42.5909ZM114.595 41.2386L114.131 42.1243L114.139 42.1287L114.595 41.2386ZM108.913 40.75V39.75H107.913V40.75H108.913ZM108.913 60V61H109.913V60H108.913ZM104.993 60V36.7273H102.993V60H104.993ZM103.993 37.7273H113.175V35.7273H103.993V37.7273ZM113.175 37.7273C114.814 37.7273 116.145 38.0402 117.209 38.6176L118.163 36.8597C116.742 36.0886 115.066 35.7273 113.175 35.7273V37.7273ZM117.213 38.6198C118.292 39.1987 119.095 39.9906 119.65 41.0031L121.404 40.0423C120.655 38.676 119.565 37.6119 118.159 36.8575L117.213 38.6198ZM119.653 41.0098C120.218 42.0226 120.515 43.2141 120.515 44.6136H122.515C122.515 42.9222 122.154 41.3864 121.4 40.0357L119.653 41.0098ZM120.515 44.6136C120.515 46.0112 120.215 47.2012 119.644 48.2132L121.386 49.1959C122.149 47.8443 122.515 46.307 122.515 44.6136H120.515ZM119.644 48.2132C119.078 49.2175 118.258 50.0046 117.156 50.579L118.08 52.3528C119.507 51.609 120.62 50.5552 121.386 49.1959L119.644 48.2132ZM117.154 50.5802C116.072 51.1472 114.717 51.4545 113.05 51.4545V53.4545C114.958 53.4545 116.649 53.1028 118.082 52.3516L117.154 50.5802ZM113.05 51.4545H107.197V53.4545H113.05V51.4545ZM108.197 52.4545V48.5114H106.197V52.4545H108.197ZM107.197 49.5114H112.254V47.5114H107.197V49.5114ZM112.254 49.5114C113.308 49.5114 114.263 49.3311 115.064 48.906L114.126 47.1395C113.7 47.3658 113.094 47.5114 112.254 47.5114V49.5114ZM115.068 48.9039C115.853 48.4827 116.466 47.8838 116.869 47.1087L115.094 46.1867C114.891 46.5783 114.58 46.8961 114.122 47.1416L115.068 48.9039ZM116.867 47.113C117.263 46.3589 117.447 45.517 117.447 44.6136H115.447C115.447 45.2405 115.321 45.7548 115.096 46.1824L116.867 47.113ZM117.447 44.6136C117.447 43.7052 117.264 42.8621 116.861 42.1161L115.101 43.0657C115.32 43.4712 115.447 43.9766 115.447 44.6136H117.447ZM116.869 42.1299C116.464 41.3505 115.845 40.7553 115.051 40.3486L114.139 42.1287C114.588 42.3583 114.893 42.6646 115.094 43.0519L116.869 42.1299ZM115.059 40.353C114.253 39.93 113.292 39.75 112.231 39.75V41.75C113.08 41.75 113.695 41.8958 114.131 42.1243L115.059 40.353ZM112.231 39.75H108.913V41.75H112.231V39.75ZM107.913 40.75V60H109.913V40.75H107.913ZM108.913 59H103.993V61H108.913V59ZM124.391 60H123.391V61H124.391V60ZM124.391 36.7273V35.7273H123.391V36.7273H124.391ZM138.073 37.6705L137.622 38.5627L137.628 38.566L138.073 37.6705ZM140.926 40.3182L140.057 40.8131L140.061 40.8199L140.926 40.3182ZM140.914 48.3182L141.771 48.8344L141.772 48.8318L140.914 48.3182ZM138.016 50.8636L137.593 49.9576L137.591 49.9586L138.016 50.8636ZM127.301 51.75H126.301V52.75H127.301V51.75ZM127.301 47.7955V46.7955H126.301V47.7955H127.301ZM134.994 47.4091L135.377 48.3328L135.377 48.3328L134.994 47.4091ZM136.38 46.25L135.524 45.7336L135.518 45.743L136.38 46.25ZM136.38 42.375L135.512 42.8712L135.517 42.8804L136.38 42.375ZM134.982 41.1705L134.571 42.082L134.578 42.085L134.584 42.0879L134.982 41.1705ZM129.312 40.75V39.75H128.312V40.75H129.312ZM129.312 60V61H130.312V60H129.312ZM136.96 49.4091L137.837 48.9298L137.553 48.4091H136.96V49.4091ZM142.744 60V61H144.429L143.621 59.5207L142.744 60ZM137.312 60L136.43 60.4713L136.712 61H137.312V60ZM131.653 49.4091V48.4091H129.985L130.771 49.8804L131.653 49.4091ZM125.391 60V36.7273H123.391V60H125.391ZM124.391 37.7273H133.573V35.7273H124.391V37.7273ZM133.573 37.7273C135.214 37.7273 136.551 38.0209 137.622 38.5627L138.525 36.7782C137.111 36.0625 135.448 35.7273 133.573 35.7273V37.7273ZM137.628 38.566C138.712 39.1043 139.51 39.8525 140.057 40.8131L141.795 39.8233C141.039 38.496 139.935 37.479 138.518 36.7749L137.628 38.566ZM140.061 40.8199C140.617 41.7796 140.914 42.9375 140.914 44.3295H142.914C142.914 42.6458 142.552 41.1295 141.791 39.8165L140.061 40.8199ZM140.914 44.3295C140.914 45.7288 140.614 46.8734 140.056 47.8045L141.772 48.8318C142.548 47.5357 142.914 46.0212 142.914 44.3295H140.914ZM140.058 47.802C139.502 48.724 138.694 49.4436 137.593 49.9576L138.44 51.7697C139.869 51.1019 140.993 50.1245 141.771 48.8344L140.058 47.802ZM137.591 49.9586C136.499 50.4717 135.13 50.75 133.448 50.75V52.75C135.343 52.75 137.019 52.4374 138.442 51.7687L137.591 49.9586ZM133.448 50.75H127.301V52.75H133.448V50.75ZM128.301 51.75V47.7955H126.301V51.75H128.301ZM127.301 48.7955H132.653V46.7955H127.301V48.7955ZM132.653 48.7955C133.675 48.7955 134.596 48.6565 135.377 48.3328L134.611 46.4853C134.149 46.6768 133.509 46.7955 132.653 46.7955V48.7955ZM135.377 48.3328C136.172 48.003 136.815 47.4826 137.242 46.757L135.518 45.743C135.339 46.0477 135.058 46.3 134.611 46.4853L135.377 48.3328ZM137.236 46.7663C137.663 46.0583 137.846 45.2279 137.846 44.3295H135.846C135.846 44.9615 135.718 45.4114 135.524 45.7337L137.236 46.7663ZM137.846 44.3295C137.846 43.4243 137.664 42.5879 137.243 41.8696L135.517 42.8804C135.718 43.2227 135.846 43.6893 135.846 44.3295H137.846ZM137.248 41.8789C136.825 41.1383 136.182 40.6007 135.38 40.253L134.584 42.0879C135.04 42.2857 135.329 42.5511 135.512 42.8711L137.248 41.8789ZM135.394 40.2589C134.603 39.9023 133.667 39.75 132.63 39.75V41.75C133.487 41.75 134.119 41.878 134.571 42.082L135.394 40.2589ZM132.63 39.75H129.312V41.75H132.63V39.75ZM128.312 40.75V60H130.312V40.75H128.312ZM129.312 59H124.391V61H129.312V59ZM136.082 49.8884L141.866 60.4793L143.621 59.5207L137.837 48.9298L136.082 49.8884ZM142.744 59H137.312V61H142.744V59ZM138.194 59.5287L132.535 48.9378L130.771 49.8804L136.43 60.4713L138.194 59.5287ZM131.653 50.4091H136.96V48.4091H131.653V50.4091ZM165.015 54.8409L164.135 54.3655L164.133 54.3684L165.015 54.8409ZM161.106 58.9205L161.599 59.7904L161.6 59.7897L161.106 58.9205ZM149.992 58.9091L150.488 58.0408L149.992 58.9091ZM146.094 54.8295L145.213 55.3021L145.213 55.3021L146.094 54.8295ZM146.094 41.8864L146.976 42.3589L146.976 42.3589L146.094 41.8864ZM149.992 37.8182L150.485 38.6882L150.488 38.6864L149.992 37.8182ZM161.106 37.8182L160.609 38.6864L160.614 38.6891L161.106 37.8182ZM165.015 41.8864L164.133 42.3589L164.135 42.3618L165.015 41.8864ZM160.731 44.2045L159.812 44.5992L159.814 44.6044L160.731 44.2045ZM158.674 41.6364L158.124 42.4717L158.124 42.4717L158.674 41.6364ZM152.446 41.6364L152.996 42.4717L152.996 42.4717L152.446 41.6364ZM150.378 44.2045L149.462 43.8047L149.459 43.8099L150.378 44.2045ZM150.378 52.5227L149.459 52.9174L149.462 52.9226L150.378 52.5227ZM152.446 55.0909L152.996 54.2556L152.996 54.2556L152.446 55.0909ZM158.674 55.0909L158.124 54.2556L158.124 54.2556L158.674 55.0909ZM160.731 52.5227L159.814 52.1229L159.812 52.1281L160.731 52.5227ZM165.458 48.3636C165.458 50.7769 165.001 52.7638 164.135 54.3655L165.894 55.3163C166.953 53.3575 167.458 51.0261 167.458 48.3636H165.458ZM164.133 54.3684C163.262 55.9936 162.088 57.2109 160.611 58.0512L161.6 59.7897C163.426 58.7512 164.858 57.2488 165.896 55.3134L164.133 54.3684ZM160.612 58.0505C159.132 58.8898 157.456 59.3182 155.56 59.3182V61.3182C157.771 61.3182 159.792 60.8147 161.599 59.7904L160.612 58.0505ZM155.56 59.3182C153.649 59.3182 151.967 58.8861 150.488 58.0408L149.496 59.7773C151.305 60.8109 153.334 61.3182 155.56 61.3182V59.3182ZM150.488 58.0408C149.018 57.2009 147.848 55.9834 146.976 54.357L145.213 55.3021C146.25 57.2363 147.678 58.7385 149.496 59.7773L150.488 58.0408ZM146.976 54.357C146.116 52.7542 145.662 50.7699 145.662 48.3636H143.662C143.662 51.018 144.163 53.3443 145.213 55.3021L146.976 54.357ZM145.662 48.3636C145.662 45.9492 146.116 43.9613 146.976 42.3589L145.213 41.4138C144.163 43.372 143.662 45.7023 143.662 48.3636H145.662ZM146.976 42.3589C147.847 40.7331 149.017 39.5203 150.485 38.6881L149.499 36.9482C147.679 37.9797 146.25 39.479 145.213 41.4138L146.976 42.3589ZM150.488 38.6864C151.967 37.8412 153.649 37.4091 155.56 37.4091V35.4091C153.334 35.4091 151.305 35.9164 149.496 36.9499L150.488 38.6864ZM155.56 37.4091C157.454 37.4091 159.129 37.8406 160.609 38.6864L161.602 36.9499C159.794 35.917 157.772 35.4091 155.56 35.4091V37.4091ZM160.614 38.6891C162.09 39.5216 163.262 40.7343 164.133 42.3589L165.896 41.4138C164.858 39.4779 163.425 37.9784 161.597 36.9472L160.614 38.6891ZM164.135 42.3618C165.001 43.9635 165.458 45.9504 165.458 48.3636H167.458C167.458 45.7012 166.953 43.3698 165.894 41.4109L164.135 42.3618ZM162.469 48.3636C162.469 46.6258 162.21 45.0943 161.647 43.8047L159.814 44.6044C160.236 45.5724 160.469 46.8136 160.469 48.3636H162.469ZM161.649 43.8099C161.1 42.5303 160.298 41.5081 159.223 40.801L158.124 42.4717C158.822 42.9313 159.392 43.6212 159.812 44.5992L161.649 43.8099ZM159.223 40.801C158.155 40.0976 156.92 39.7614 155.56 39.7614V41.7614C156.579 41.7614 157.42 42.0085 158.124 42.4717L159.223 40.801ZM155.56 39.7614C154.2 39.7614 152.966 40.0976 151.897 40.801L152.996 42.4717C153.7 42.0085 154.542 41.7614 155.56 41.7614V39.7614ZM151.897 40.801C150.824 41.5072 150.019 42.5275 149.462 43.8047L151.295 44.6044C151.723 43.6241 152.296 42.9322 152.996 42.4717L151.897 40.801ZM149.459 43.8099C148.906 45.0979 148.651 46.6274 148.651 48.3636H150.651C150.651 46.812 150.881 45.5688 151.297 44.5992L149.459 43.8099ZM148.651 48.3636C148.651 50.0999 148.906 51.6294 149.459 52.9174L151.297 52.1281C150.881 51.1585 150.651 49.9153 150.651 48.3636H148.651ZM149.462 52.9226C150.019 54.1998 150.824 55.2201 151.897 55.9262L152.996 54.2556C152.296 53.795 151.723 53.1032 151.295 52.1229L149.462 52.9226ZM151.897 55.9262C152.966 56.6297 154.2 56.9659 155.56 56.9659V54.9659C154.542 54.9659 153.7 54.7188 152.996 54.2556L151.897 55.9262ZM155.56 56.9659C156.92 56.9659 158.155 56.6297 159.223 55.9262L158.124 54.2556C157.42 54.7188 156.579 54.9659 155.56 54.9659V56.9659ZM159.223 55.9262C160.298 55.2191 161.1 54.1969 161.649 52.9174L159.812 52.1281C159.392 53.1061 158.822 53.796 158.124 54.2556L159.223 55.9262ZM161.647 52.9226C162.21 51.633 162.469 50.1015 162.469 48.3636H160.469C160.469 49.9136 160.236 51.1549 159.814 52.1229L161.647 52.9226ZM179.101 36.7273V35.7273H178.101V36.7273H179.101ZM183.965 36.7273H184.965V35.7273H183.965V36.7273ZM182.953 56.8636L182.099 56.3431L182.097 56.3474L182.953 56.8636ZM180.169 59.4205L179.72 58.5272L179.72 58.5272L180.169 59.4205ZM172.203 59.5795L171.8 60.4949L171.808 60.4981L172.203 59.5795ZM169.499 57.3068L168.661 57.8529L168.663 57.8557L169.499 57.3068ZM168.51 53.4545V52.4545H167.515L167.51 53.4496L168.51 53.4545ZM173.408 53.4545L174.407 53.4299L174.383 52.4545H173.408V53.4545ZM173.783 55.0341L172.901 55.5055L172.906 55.5146L172.911 55.5236L173.783 55.0341ZM174.771 56.0341L174.28 56.9052L174.29 56.9105L174.299 56.9156L174.771 56.0341ZM177.805 55.9886L178.331 56.8392L178.335 56.8366L177.805 55.9886ZM178.771 54.8295L179.689 55.2268L179.689 55.2268L178.771 54.8295ZM179.101 37.7273H183.965V35.7273H179.101V37.7273ZM182.965 36.7273V52.9545H184.965V36.7273H182.965ZM182.965 52.9545C182.965 54.3004 182.664 55.4173 182.099 56.3431L183.807 57.3841C184.591 56.0979 184.965 54.6087 184.965 52.9545H182.965ZM182.097 56.3474C181.531 57.2867 180.746 58.0107 179.72 58.5272L180.619 60.3137C181.971 59.6332 183.042 58.6527 183.81 57.3799L182.097 56.3474ZM179.72 58.5272C178.693 59.0437 177.469 59.3182 176.021 59.3182V61.3182C177.725 61.3182 179.266 60.9942 180.619 60.3137L179.72 58.5272ZM176.021 59.3182C174.739 59.3182 173.603 59.0933 172.599 58.661L171.808 60.4981C173.091 61.0506 174.501 61.3182 176.021 61.3182V59.3182ZM172.606 58.6642C171.642 58.2402 170.893 57.6079 170.334 56.7579L168.663 57.8557C169.438 59.036 170.492 59.9189 171.8 60.4949L172.606 58.6642ZM170.336 56.7607C169.802 55.9405 169.503 54.8611 169.51 53.4594L167.51 53.4496C167.502 55.1389 167.862 56.6277 168.661 57.8529L170.336 56.7607ZM168.51 54.4545H173.408V52.4545H168.51V54.4545ZM172.408 53.4792C172.426 54.2134 172.577 54.9001 172.901 55.5055L174.665 54.5627C174.518 54.2893 174.42 53.923 174.407 53.4299L172.408 53.4792ZM172.911 55.5236C173.239 56.1092 173.698 56.5772 174.28 56.9052L175.262 55.1629C175.011 55.0213 174.811 54.8226 174.655 54.5446L172.911 55.5236ZM174.299 56.9156C174.895 57.2346 175.563 57.375 176.271 57.375V55.375C175.828 55.375 175.497 55.2882 175.244 55.1526L174.299 56.9156ZM176.271 57.375C177.019 57.375 177.723 57.2153 178.331 56.8392L177.28 55.138C177.055 55.2772 176.736 55.375 176.271 55.375V57.375ZM178.335 56.8366C178.95 56.4528 179.398 55.8999 179.689 55.2268L177.854 54.4323C177.706 54.7743 177.51 54.9942 177.275 55.1406L178.335 56.8366ZM179.689 55.2268C179.978 54.5587 180.101 53.7894 180.101 52.9545H178.101C178.101 53.6045 178.004 54.0852 177.854 54.4323L179.689 55.2268ZM180.101 52.9545V36.7273H178.101V52.9545H180.101ZM187.713 60H186.713V61H187.713V60ZM187.713 36.7273V35.7273H186.713V36.7273H187.713ZM203.395 36.7273H204.395V35.7273H203.395V36.7273ZM203.395 40.7841V41.7841H204.395V40.7841H203.395ZM192.633 40.7841V39.7841H191.633V40.7841H192.633ZM192.633 46.3295H191.633V47.3295H192.633V46.3295ZM202.588 46.3295H203.588V45.3295H202.588V46.3295ZM202.588 50.3864V51.3864H203.588V50.3864H202.588ZM192.633 50.3864V49.3864H191.633V50.3864H192.633ZM192.633 55.9432H191.633V56.9432H192.633V55.9432ZM203.44 55.9432H204.44V54.9432H203.44V55.9432ZM203.44 60V61H204.44V60H203.44ZM188.713 60V36.7273H186.713V60H188.713ZM187.713 37.7273H203.395V35.7273H187.713V37.7273ZM202.395 36.7273V40.7841H204.395V36.7273H202.395ZM203.395 39.7841H192.633V41.7841H203.395V39.7841ZM191.633 40.7841V46.3295H193.633V40.7841H191.633ZM192.633 47.3295H202.588V45.3295H192.633V47.3295ZM201.588 46.3295V50.3864H203.588V46.3295H201.588ZM202.588 49.3864H192.633V51.3864H202.588V49.3864ZM191.633 50.3864V55.9432H193.633V50.3864H191.633ZM192.633 56.9432H203.44V54.9432H192.633V56.9432ZM202.44 55.9432V60H204.44V55.9432H202.44ZM203.44 59H187.713V61H203.44V59ZM206.1 40.7841H205.1V41.7841H206.1V40.7841ZM206.1 36.7273V35.7273H205.1V36.7273H206.1ZM225.214 36.7273H226.214V35.7273H225.214V36.7273ZM225.214 40.7841V41.7841H226.214V40.7841H225.214ZM218.089 40.7841V39.7841H217.089V40.7841H218.089ZM218.089 60V61H219.089V60H218.089ZM213.225 60H212.225V61H213.225V60ZM213.225 40.7841H214.225V39.7841H213.225V40.7841ZM207.1 40.7841V36.7273H205.1V40.7841H207.1ZM206.1 37.7273H225.214V35.7273H206.1V37.7273ZM224.214 36.7273V40.7841H226.214V36.7273H224.214ZM225.214 39.7841H218.089V41.7841H225.214V39.7841ZM217.089 40.7841V60H219.089V40.7841H217.089ZM218.089 59H213.225V61H218.089V59ZM214.225 60V40.7841H212.225V60H214.225ZM213.225 39.7841H206.1V41.7841H213.225V39.7841ZM240.666 43.4205L239.671 43.5191L239.761 44.4205H240.666V43.4205ZM234.655 40.8636L235.024 41.7931L235.035 41.7886L234.655 40.8636ZM233.382 41.7841L232.582 41.184L232.575 41.1941L233.382 41.7841ZM232.951 43.125L233.95 43.1613L233.951 43.1432V43.125H232.951ZM233.212 44.2159L232.358 44.7365L232.363 44.744L232.367 44.7515L233.212 44.2159ZM234.019 45.0227L233.464 45.8548L233.471 45.8591L233.477 45.8633L234.019 45.0227ZM235.201 45.6023L234.851 46.5393L234.858 46.5419L234.865 46.5444L235.201 45.6023ZM236.632 46.0114L236.865 45.0388L236.858 45.0371L236.851 45.0355L236.632 46.0114ZM238.723 46.5114L238.491 47.4839L238.498 47.4856L238.505 47.4872L238.723 46.5114ZM241.519 47.4205L241.111 48.3336L241.111 48.3336L241.519 47.4205ZM243.723 48.8182L244.388 48.0713L244.388 48.0713L243.723 48.8182ZM245.166 50.7727L244.256 51.1865L244.26 51.1941L245.166 50.7727ZM245.701 53.3523L246.701 53.3576L246.701 53.3445L245.701 53.3523ZM244.61 57.0568L243.786 56.4898L243.785 56.4911L244.61 57.0568ZM241.519 59.4773L241.909 60.398L241.911 60.397L241.519 59.4773ZM231.757 59.4659L231.374 60.3894L231.376 60.3902L231.757 59.4659ZM228.507 56.9091L227.68 57.4714L227.685 57.4777L228.507 56.9091ZM227.291 52.6932V51.6932H226.269L226.292 52.7158L227.291 52.6932ZM232.053 52.6932L233.051 52.6254L232.987 51.6932H232.053V52.6932ZM232.723 54.6477L231.925 55.2496L231.93 55.2561L231.935 55.2625L232.723 54.6477ZM234.326 55.8182L233.956 56.7475L233.969 56.7523L234.326 55.8182ZM238.78 55.8409L238.417 54.9093L238.413 54.9109L238.78 55.8409ZM240.223 54.8295L241.008 55.4492L241.008 55.4492L240.223 54.8295ZM240.269 52.0227L239.507 52.6709L239.515 52.6801L240.269 52.0227ZM238.928 51.1136L238.534 52.0328L238.538 52.0346L238.928 51.1136ZM236.78 50.4318L236.537 51.4017L236.546 51.404L236.78 50.4318ZM234.246 49.7955L234.49 48.8255L234.482 48.8238L234.246 49.7955ZM229.598 47.5568L228.932 48.3026L228.932 48.3026L229.598 47.5568ZM227.905 43.4545L228.905 43.4589L228.905 43.4492L227.905 43.4545ZM229.03 39.7614L228.221 39.1735L228.218 39.1774L229.03 39.7614ZM241.246 37.2955L240.829 38.2044L240.831 38.2053L241.246 37.2955ZM244.269 39.7614L243.443 40.3256L243.443 40.3256L244.269 39.7614ZM245.382 43.4205V44.4205H246.399L246.382 43.4041L245.382 43.4205ZM241.662 43.3218C241.545 42.1473 241.025 41.1682 240.089 40.4788L238.903 42.0894C239.346 42.4152 239.606 42.8603 239.671 43.5191L241.662 43.3218ZM240.089 40.4788C239.173 39.8046 238.005 39.5227 236.689 39.5227V41.5227C237.737 41.5227 238.44 41.7484 238.903 42.0894L240.089 40.4788ZM236.689 39.5227C235.798 39.5227 234.982 39.648 234.275 39.9387L235.035 41.7886C235.434 41.6247 235.974 41.5227 236.689 41.5227V39.5227ZM234.286 39.9343C233.598 40.2078 233.009 40.6147 232.582 41.1841L234.182 42.3841C234.346 42.1656 234.607 41.9589 235.024 41.793L234.286 39.9343ZM232.575 41.1941C232.159 41.7638 231.951 42.4185 231.951 43.125H233.951C233.951 42.8315 234.03 42.5923 234.19 42.3741L232.575 41.1941ZM231.951 43.0887C231.93 43.6718 232.052 44.2351 232.358 44.7365L234.066 43.6953C233.993 43.5756 233.941 43.4115 233.95 43.1613L231.951 43.0887ZM232.367 44.7515C232.647 45.1929 233.02 45.5589 233.464 45.8548L234.573 44.1907C234.335 44.032 234.17 43.8602 234.056 43.6804L232.367 44.7515ZM233.477 45.8633C233.888 46.1281 234.348 46.3517 234.851 46.5393L235.55 44.6653C235.159 44.5195 234.831 44.3568 234.56 44.1822L233.477 45.8633ZM234.865 46.5444C235.354 46.7183 235.87 46.8655 236.414 46.9872L236.851 45.0355C236.379 44.9299 235.941 44.8044 235.536 44.6602L234.865 46.5444ZM236.4 46.9839L238.491 47.4839L238.956 45.5388L236.865 45.0388L236.4 46.9839ZM238.505 47.4872C239.463 47.7016 240.33 47.985 241.111 48.3336L241.926 46.5073C241.01 46.0984 240.014 45.7756 238.942 45.5355L238.505 47.4872ZM241.111 48.3336C241.877 48.6754 242.522 49.0878 243.058 49.5651L244.388 48.0713C243.682 47.4425 242.858 46.9231 241.926 46.5073L241.111 48.3336ZM243.058 49.5651C243.576 50.0263 243.973 50.5647 244.256 51.1865L246.077 50.3589C245.678 49.4807 245.113 48.7161 244.388 48.0713L243.058 49.5651ZM244.26 51.1941C244.538 51.794 244.694 52.5089 244.701 53.3601L246.701 53.3445C246.692 52.2563 246.492 51.2514 246.073 50.3513L244.26 51.1941ZM244.701 53.347C244.694 54.596 244.378 55.6294 243.786 56.4898L245.433 57.6239C246.28 56.3933 246.692 54.9571 246.701 53.3576L244.701 53.347ZM243.785 56.4911C243.197 57.348 242.329 58.0439 241.126 58.5576L241.911 60.397C243.405 59.7592 244.598 58.8414 245.434 57.6226L243.785 56.4911ZM241.129 58.5565C239.942 59.0592 238.465 59.3295 236.666 59.3295V61.3295C238.656 61.3295 240.414 61.0317 241.909 60.398L241.129 58.5565ZM236.666 59.3295C234.888 59.3295 233.386 59.0568 232.139 58.5416L231.376 60.3902C232.916 61.0266 234.688 61.3295 236.666 61.3295V59.3295ZM232.141 58.5424C230.915 58.0331 229.991 57.2965 229.33 56.3405L227.685 57.4777C228.585 58.7793 229.827 59.7472 231.374 60.3894L232.141 58.5424ZM229.334 56.3468C228.692 55.4017 228.326 54.1945 228.291 52.6706L226.292 52.7158C226.333 54.5404 226.778 56.1438 227.68 57.4714L229.334 56.3468ZM227.291 53.6932H232.053V51.6932H227.291V53.6932ZM231.055 52.761C231.119 53.6966 231.393 54.5439 231.925 55.2496L233.522 54.0459C233.266 53.7061 233.093 53.2504 233.051 52.6254L231.055 52.761ZM231.935 55.2625C232.456 55.9314 233.141 56.4232 233.956 56.7474L234.695 54.889C234.177 54.6829 233.794 54.3944 233.512 54.033L231.935 55.2625ZM233.969 56.7523C234.775 57.0604 235.66 57.2045 236.61 57.2045V55.2045C235.862 55.2045 235.225 55.0912 234.682 54.884L233.969 56.7523ZM236.61 57.2045C237.537 57.2045 238.391 57.07 239.148 56.771L238.413 54.9109C237.942 55.0967 237.349 55.2045 236.61 55.2045V57.2045ZM239.144 56.7725C239.895 56.4791 240.536 56.0475 241.008 55.4492L239.438 54.2099C239.229 54.4752 238.907 54.7179 238.417 54.9093L239.144 56.7725ZM241.008 55.4492C241.491 54.8373 241.735 54.1217 241.735 53.3409H239.735C239.735 53.6813 239.637 53.9582 239.438 54.2099L241.008 55.4492ZM241.735 53.3409C241.735 52.6041 241.509 51.9233 241.022 51.3654L239.515 52.6801C239.65 52.8342 239.735 53.0323 239.735 53.3409H241.735ZM241.03 51.3746C240.596 50.8641 240.001 50.482 239.317 50.1927L238.538 52.0346C239.036 52.2453 239.336 52.4692 239.507 52.6708L241.03 51.3746ZM239.322 50.1945C238.672 49.9159 237.899 49.6729 237.014 49.4597L236.546 51.404C237.358 51.5999 238.017 51.8114 238.534 52.0328L239.322 50.1945ZM237.024 49.4619L234.49 48.8256L234.002 50.7653L236.537 51.4017L237.024 49.4619ZM234.482 48.8238C232.63 48.3732 231.245 47.6869 230.265 46.8111L228.932 48.3026C230.224 49.457 231.938 50.2632 234.01 50.7671L234.482 48.8238ZM230.265 46.8111C229.37 46.0123 228.899 44.9333 228.905 43.4589L226.905 43.4501C226.896 45.4152 227.553 47.071 228.932 48.3026L230.265 46.8111ZM228.905 43.4492C228.899 42.2322 229.219 41.2118 229.842 40.3454L228.218 39.1774C227.327 40.417 226.897 41.8587 226.905 43.4599L228.905 43.4492ZM229.839 40.3492C230.489 39.4552 231.391 38.738 232.583 38.2097L231.773 36.3812C230.298 37.0347 229.102 37.9615 228.221 39.1735L229.839 40.3492ZM232.583 38.2097C233.77 37.6838 235.143 37.4091 236.723 37.4091V35.4091C234.909 35.4091 233.253 35.7253 231.773 36.3812L232.583 38.2097ZM236.723 37.4091C238.337 37.4091 239.697 37.6851 240.829 38.2043L241.663 36.3866C240.219 35.724 238.564 35.4091 236.723 35.4091V37.4091ZM240.831 38.2053C241.98 38.7296 242.838 39.4401 243.443 40.3256L245.094 39.1971C244.26 37.9766 243.102 37.0431 241.661 36.3856L240.831 38.2053ZM243.443 40.3256C244.043 41.2029 244.363 42.2284 244.383 43.4368L246.382 43.4041C246.357 41.8397 245.934 40.4259 245.094 39.1971L243.443 40.3256ZM245.382 42.4205H240.666V44.4205H245.382V42.4205Z" fill="#F68B39" mask="url(#path-1-outside-1_2487_62)"/>
<path d="M231.875 113.299H233.424V111.75V104.281L245.581 114.291L233.424 124.543V117.125V115.576H231.875H206.549V113.299H231.875Z" fill="#F68B39" stroke="#F68B39" stroke-width="3.09759"/>
<g filter="url(#filter0_d_2487_62)">
<path d="M14 2H265C269.418 2 273 5.58172 273 10V153C273 157.418 269.418 161 265 161H192C187.582 161 184 157.418 184 153V117C184 110.373 178.627 105 172 105H14C9.58172 105 6 101.418 6 97V10C6 5.58172 9.58172 2 14 2Z" stroke="#F68B39" stroke-width="4" shape-rendering="crispEdges"/>
</g>
<defs>
<filter id="filter0_d_2487_62" x="0" y="0" width="279" height="171" filterUnits="userSpaceOnUse" color-interpolation-filters="sRGB">
<feFlood flood-opacity="0" result="BackgroundImageFix"/>
<feColorMatrix in="SourceAlpha" type="matrix" values="0 0 0 0 0 0 0 0 0 0 0 0 0 0 0 0 0 0 127 0" result="hardAlpha"/>
<feOffset dy="4"/>
<feGaussianBlur stdDeviation="2"/>
<feComposite in2="hardAlpha" operator="out"/>
<feColorMatrix type="matrix" values="0 0 0 0 0 0 0 0 0 0 0 0 0 0 0 0 0 0 0.25 0"/>
<feBlend mode="normal" in2="BackgroundImageFix" result="effect1_dropShadow_2487_62"/>
<feBlend mode="normal" in="SourceGraphic" in2="effect1_dropShadow_2487_62" result="shape"/>
</filter>
</defs>
</svg>
